<?xml version="1.0" standalone="no"?>
<!DOCTYPE svg PUBLIC "-//W3C//DTD SVG 20010904//EN"
 "http://www.w3.org/TR/2001/REC-SVG-20010904/DTD/svg10.dtd">
<svg version="1.0" xmlns="http://www.w3.org/2000/svg"
 width="1600.000000pt" height="900.000000pt" viewBox="0 0 1600.000000 900.000000"
 preserveAspectRatio="xMidYMid meet">
<metadata>
Created by potrace 1.15, written by Peter Selinger 2001-2017
</metadata>
<g transform="translate(0.000000,900.000000) scale(0.100000,-0.100000)"
fill="#A97757" stroke="none">
<path d="M7530 8279 c-868 -67 -1654 -374 -2320 -905 -159 -127 -461 -425
-582 -574 -477 -589 -753 -1244 -840 -1995 -19 -165 -16 -606 5 -785 79 -654
327 -1276 718 -1800 708 -950 1798 -1539 3019 -1631 192 -14 605 -6 785 16
960 116 1800 515 2456 1165 615 609 996 1375 1104 2220 31 239 31 649 -1 895
-125 976 -628 1860 -1420 2495 -657 526 -1455 835 -2324 899 -152 11 -457 11
-600 0z m740 -653 c940 -115 1756 -558 2315 -1256 353 -441 569 -941 651
-1505 19 -132 26 -528 11 -690 -9 -95 -48 -319 -73 -420 -223 -882 -837 -1634
-1685 -2065 -392 -199 -783 -317 -1234 -371 -172 -21 -666 -18 -835 4 -611 83
-1133 281 -1605 612 -173 121 -288 218 -445 375 -510 509 -815 1128 -902 1830
-20 159 -17 546 6 705 97 699 401 1304 907 1806 552 547 1319 904 2104 979 61
5 128 12 150 14 87 9 517 -4 635 -18z"/>
<path d="M5700 5715 l0 -235 165 0 165 0 0 -920 0 -920 -165 0 -165 0 0 -240
0 -240 1035 0 1035 0 0 670 0 670 -225 0 -225 0 0 -430 0 -430 -345 0 -345 0
2 918 3 917 168 3 167 2 0 235 0 235 -635 0 -635 0 0 -235z"/>
<path d="M7850 5716 l0 -236 178 -2 177 -3 3 -917 2 -918 -177 -2 -178 -3 -3
-238 -2 -238 732 4 c712 3 736 4 831 25 311 71 532 216 694 457 55 82 118 209
148 300 137 407 105 1025 -70 1377 -167 333 -402 514 -780 601 -86 20 -124 21
-822 24 l-733 4 0 -235z m1355 -261 c188 -50 318 -161 405 -347 135 -288 133
-859 -3 -1131 -49 -98 -152 -206 -242 -254 -110 -58 -190 -75 -382 -80 l-173
-5 0 922 0 923 168 -6 c104 -3 190 -12 227 -22z"/>
</g>
</svg>
